{
	"asset":{
		"generator":"Khronos glTF Blender I/O v4.3.47",
		"version":"2.0"
	},
	"extensionsUsed":[
		"KHR_materials_clearcoat",
		"KHR_materials_transmission",
		"KHR_materials_specular",
		"KHR_materials_ior"
	],
	"scene":0,
	"scenes":[
		{
			"name":"Scene",
			"nodes":[
				0,
				1,
				2,
				3,
				4,
				5
			]
		}
	],
	"nodes":[
		{
			"mesh":0,
			"name":"DG Aperture 2T4P.002",
			"rotation":[
				0.7071068286895752,
				0,
				0,
				0.7071068286895752
			],
			"scale":[
				0.0021623356733471155,
				0.0021623356733471155,
				0.0021623356733471155
			],
			"translation":[
				-0.11702489852905273,
				-0.0005851984024047852,
				0.0005384683609008789
			]
		},
		{
			"mesh":1,
			"name":"DG Aperture 2T4P.004",
			"rotation":[
				0.7071068286895752,
				0,
				0,
				0.7071068286895752
			],
			"scale":[
				0.0021623356733471155,
				0.0021623356733471155,
				0.0021623356733471155
			],
			"translation":[
				-0.08190475404262543,
				0.09005673974752426,
				0.23079639673233032
			]
		},
		{
			"mesh":2,
			"name":"DG Aperture 2T4P.005",
			"rotation":[
				0.7071068286895752,
				0,
				0,
				0.7071068286895752
			],
			"scale":[
				0.0021623356733471155,
				0.0021623356733471155,
				0.0021623356733471155
			],
			"translation":[
				-0.08117102831602097,
				-0.03385951742529869,
				-0.49308499693870544
			]
		},
		{
			"mesh":3,
			"name":"DG Aperture 2T4P.006",
			"rotation":[
				0.7071068286895752,
				0,
				0,
				0.7071068286895752
			],
			"scale":[
				0.0021623356733471155,
				0.0021623356733471155,
				0.0021623356733471155
			],
			"translation":[
				0.002102181315422058,
				-0.20499318838119507,
				-1.1067793369293213
			]
		},
		{
			"mesh":4,
			"name":"DG Aperture 2T4P.007",
			"rotation":[
				0.7071068286895752,
				0,
				0,
				0.7071068286895752
			],
			"scale":[
				0.0021623356733471155,
				0.0021623356733471155,
				0.0021623356733471155
			],
			"translation":[
				-0.11702489852905273,
				-0.0005851984024047852,
				0.0005384683609008789
			]
		},
		{
			"mesh":5,
			"name":"DG Aperture 2T4P.008",
			"rotation":[
				0.7071068286895752,
				0,
				0,
				0.7071068286895752
			],
			"scale":[
				0.0021623356733471155,
				0.0021623356733471155,
				0.0021623356733471155
			],
			"translation":[
				-0.11702489852905273,
				-0.0005851984024047852,
				0.0005384683609008789
			]
		}
	],
	"materials":[
		{
			"doubleSided":true,
			"name":"Bricks",
			"normalTexture":{
				"index":0,
				"texCoord":1
			},
			"pbrMetallicRoughness":{
				"baseColorTexture":{
					"index":1,
					"texCoord":1
				},
				"metallicFactor":0,
				"metallicRoughnessTexture":{
					"index":2,
					"texCoord":1
				}
			}
		},
		{
			"doubleSided":true,
			"name":"Mat_3",
			"pbrMetallicRoughness":{
				"baseColorFactor":[
					0.0811493918299675,
					0.0811493918299675,
					0.0811493918299675,
					1
				],
				"metallicFactor":0.4029850661754608,
				"roughnessFactor":0.3731343150138855
			}
		},
		{
			"alphaMode":"BLEND",
			"doubleSided":true,
			"extensions":{
				"KHR_materials_clearcoat":{
					"clearcoatFactor":0.16231343150138855,
					"clearcoatRoughnessFactor":0.09716418385505676
				},
				"KHR_materials_transmission":{
					"transmissionFactor":1
				},
				"KHR_materials_ior":{
					"ior":1.4500000476837158
				}
			},
			"name":"Mat_2",
			"pbrMetallicRoughness":{
				"baseColorFactor":[
					0.800000011920929,
					0.800000011920929,
					0.800000011920929,
					0.608208954334259
				],
				"metallicFactor":0,
				"roughnessFactor":0.5
			}
		},
		{
			"doubleSided":true,
			"extensions":{
				"KHR_materials_specular":{
					"specularColorFactor":[
						2.0,
						2.0,
						2.0
					]
				},
				"KHR_materials_ior":{
					"ior":1.4500000476837158
				}
			},
			"name":"Mat_1",
			"pbrMetallicRoughness":{
				"baseColorTexture":{
					"index":3,
					"texCoord":1
				},
				"metallicFactor":0
			}
		},
		{
			"doubleSided":true,
			"extensions":{
				"KHR_materials_specular":{
					"specularColorFactor":[
						2.0,
						2.0,
						2.0
					]
				},
				"KHR_materials_ior":{
					"ior":1.4500000476837158
				}
			},
			"name":"Lock_mat",
			"pbrMetallicRoughness":{
				"baseColorFactor":[
					0.05382684990763664,
					0.05488462373614311,
					0.05810964107513428,
					1
				],
				"metallicFactor":0.8059701323509216,
				"roughnessFactor":0.38805967569351196
			}
		},
		{
			"doubleSided":true,
			"name":"handle_mat",
			"pbrMetallicRoughness":{
				"baseColorFactor":[
					0.20186765491962433,
					0.20186765491962433,
					0.20186765491962433,
					1
				],
				"metallicFactor":0.4514925479888916,
				"roughnessFactor":0.36194029450416565
			}
		}
	],
	"meshes":[
		{
			"name":"DG Aperture 2T4P.002",
			"primitives":[
				{
					"attributes":{
						"POSITION":0,
						"NORMAL":1,
						"TEXCOORD_0":2,
						"TEXCOORD_1":3
					},
					"indices":4,
					"material":0
				},
				{
					"attributes":{
						"POSITION":5,
						"NORMAL":6,
						"TEXCOORD_0":7,
						"TEXCOORD_1":8
					},
					"indices":9,
					"material":1
				},
				{
					"attributes":{
						"POSITION":10,
						"NORMAL":11,
						"TEXCOORD_0":12,
						"TEXCOORD_1":13
					},
					"indices":14,
					"material":2
				}
			]
		},
		{
			"name":"DG Aperture 2T4P.005",
			"primitives":[
				{
					"attributes":{
						"POSITION":15,
						"NORMAL":16,
						"TEXCOORD_0":17,
						"TEXCOORD_1":18
					},
					"indices":19,
					"material":1
				},
				{
					"attributes":{
						"POSITION":20,
						"NORMAL":21,
						"TEXCOORD_0":22,
						"TEXCOORD_1":23
					},
					"indices":24,
					"material":2
				}
			]
		},
		{
			"name":"DG Aperture 2T4P.007",
			"primitives":[
				{
					"attributes":{
						"POSITION":25,
						"NORMAL":26,
						"TEXCOORD_0":27,
						"TEXCOORD_1":28
					},
					"indices":29,
					"material":1
				},
				{
					"attributes":{
						"POSITION":30,
						"NORMAL":31,
						"TEXCOORD_0":32,
						"TEXCOORD_1":33
					},
					"indices":24,
					"material":2
				}
			]
		},
		{
			"name":"DG Aperture 2T4P.009",
			"primitives":[
				{
					"attributes":{
						"POSITION":34,
						"NORMAL":35,
						"TEXCOORD_0":36,
						"TEXCOORD_1":37
					},
					"indices":38,
					"material":1
				},
				{
					"attributes":{
						"POSITION":39,
						"NORMAL":40,
						"TEXCOORD_0":41,
						"TEXCOORD_1":42
					},
					"indices":24,
					"material":2
				},
				{
					"attributes":{
						"POSITION":43,
						"NORMAL":44,
						"TEXCOORD_0":45,
						"TEXCOORD_1":46
					},
					"indices":47,
					"material":3
				}
			]
		},
		{
			"name":"DG Aperture 2T4P.011",
			"primitives":[
				{
					"attributes":{
						"POSITION":48,
						"NORMAL":49,
						"TEXCOORD_0":50,
						"TEXCOORD_1":51
					},
					"indices":52,
					"material":1
				}
			]
		},
		{
			"name":"DG Aperture 2T4P.012",
			"primitives":[
				{
					"attributes":{
						"POSITION":53,
						"NORMAL":54,
						"TEXCOORD_0":55,
						"TEXCOORD_1":56
					},
					"indices":57,
					"material":1
				},
				{
					"attributes":{
						"POSITION":58,
						"NORMAL":59,
						"TEXCOORD_0":60,
						"TEXCOORD_1":61
					},
					"indices":24,
					"material":2
				},
				{
					"attributes":{
						"POSITION":62,
						"NORMAL":63,
						"TEXCOORD_0":64,
						"TEXCOORD_1":65
					},
					"indices":66,
					"material":4
				},
				{
					"attributes":{
						"POSITION":67,
						"NORMAL":68,
						"TEXCOORD_0":69,
						"TEXCOORD_1":70
					},
					"indices":71,
					"material":5
				}
			]
		}
	],
	"textures":[
		{
			"sampler":0,
			"source":0
		},
		{
			"sampler":0,
			"source":1
		},
		{
			"sampler":0,
			"source":2
		},
		{
			"sampler":0,
			"source":3
		}
	],
	"images":[
		{
			"mimeType":"image/jpeg",
			"name":"Bricks059_2K_Normal",
			"uri":"Bricks059_2K_Normal.jpg"
		},
		{
			"mimeType":"image/jpeg",
			"name":"Bricks059_2K_Color",
			"uri":"Bricks059_2K_Color.jpg"
		},
		{
			"mimeType":"image/png",
			"name":"Bricks059_2K_Roughness",
			"uri":"Bricks059_2K_Roughness.png"
		},
		{
			"mimeType":"image/png",
			"name":"Untitled",
			"uri":"Untitled.png"
		}
	],
	"accessors":[
		{
			"bufferView":0,
			"componentType":5126,
			"count":64,
			"max":[
				142.47555541992188,
				1125.0205078125,
				614.373291015625
			],
			"min":[
				-57.52444076538086,
				-1118.9794921875,
				-585.626708984375
			],
			"type":"VEC3"
		},
		{
			"bufferView":1,
			"componentType":5126,
			"count":64,
			"type":"VEC3"
		},
		{
			"bufferView":2,
			"componentType":5126,
			"count":64,
			"type":"VEC2"
		},
		{
			"bufferView":3,
			"componentType":5126,
			"count":64,
			"type":"VEC2"
		},
		{
			"bufferView":4,
			"componentType":5123,
			"count":96,
			"type":"SCALAR"
		},
		{
			"bufferView":5,
			"componentType":5126,
			"count":4,
			"max":[
				-0.7256851196289062,
				-479.1890869140625,
				-453.1732177734375
			],
			"min":[
				-2.762798309326172,
				-530.7088623046875,
				-453.1732177734375
			],
			"type":"VEC3"
		},
		{
			"bufferView":6,
			"componentType":5126,
			"count":4,
			"type":"VEC3"
		},
		{
			"bufferView":7,
			"componentType":5126,
			"count":4,
			"type":"VEC2"
		},
		{
			"bufferView":8,
			"componentType":5126,
			"count":4,
			"type":"VEC2"
		},
		{
			"bufferView":9,
			"componentType":5123,
			"count":6,
			"type":"SCALAR"
		},
		{
			"bufferView":10,
			"componentType":5126,
			"count":160,
			"max":[
				92.24961853027344,
				942.0730590820312,
				417.0230407714844
			],
			"min":[
				0.2496185302734375,
				-936.0265502929688,
				-387.97705078125
			],
			"type":"VEC3"
		},
		{
			"bufferView":11,
			"componentType":5126,
			"count":160,
			"type":"VEC3"
		},
		{
			"bufferView":12,
			"componentType":5126,
			"count":160,
			"type":"VEC2"
		},
		{
			"bufferView":13,
			"componentType":5126,
			"count":160,
			"type":"VEC2"
		},
		{
			"bufferView":14,
			"componentType":5123,
			"count":240,
			"type":"SCALAR"
		},
		{
			"bufferView":15,
			"componentType":5126,
			"count":1030,
			"max":[
				25.43056297302246,
				378.7835998535156,
				524.6633911132812
			],
			"min":[
				-25.379724502563477,
				-123.46408081054688,
				-411.89886474609375
			],
			"type":"VEC3"
		},
		{
			"bufferView":16,
			"componentType":5126,
			"count":1030,
			"type":"VEC3"
		},
		{
			"bufferView":17,
			"componentType":5126,
			"count":1030,
			"type":"VEC2"
		},
		{
			"bufferView":18,
			"componentType":5126,
			"count":1030,
			"type":"VEC2"
		},
		{
			"bufferView":19,
			"componentType":5123,
			"count":2556,
			"type":"SCALAR"
		},
		{
			"bufferView":20,
			"componentType":5126,
			"count":8,
			"max":[
				16.007856369018555,
				390.4878234863281,
				458.94146728515625
			],
			"min":[
				-15.99213981628418,
				-26.512222290039062,
				-346.05853271484375
			],
			"type":"VEC3"
		},
		{
			"bufferView":21,
			"componentType":5126,
			"count":8,
			"type":"VEC3"
		},
		{
			"bufferView":22,
			"componentType":5126,
			"count":8,
			"type":"VEC2"
		},
		{
			"bufferView":23,
			"componentType":5126,
			"count":8,
			"type":"VEC2"
		},
		{
			"bufferView":24,
			"componentType":5123,
			"count":12,
			"type":"SCALAR"
		},
		{
			"bufferView":25,
			"componentType":5126,
			"count":478,
			"max":[
				21.77637481689453,
				221.64083862304688,
				467.3566589355469
			],
			"min":[
				-22.779499053955078,
				-254.780517578125,
				-468.979248046875
			],
			"type":"VEC3"
		},
		{
			"bufferView":26,
			"componentType":5126,
			"count":478,
			"type":"VEC3"
		},
		{
			"bufferView":27,
			"componentType":5126,
			"count":478,
			"type":"VEC2"
		},
		{
			"bufferView":28,
			"componentType":5126,
			"count":478,
			"type":"VEC2"
		},
		{
			"bufferView":29,
			"componentType":5123,
			"count":1080,
			"type":"SCALAR"
		},
		{
			"bufferView":30,
			"componentType":5126,
			"count":8,
			"max":[
				15.668533325195312,
				154.25486755371094,
				401.6349182128906
			],
			"min":[
				-16.331462860107422,
				-262.7451171875,
				-403.3650817871094
			],
			"type":"VEC3"
		},
		{
			"bufferView":31,
			"componentType":5126,
			"count":8,
			"type":"VEC3"
		},
		{
			"bufferView":32,
			"componentType":5126,
			"count":8,
			"type":"VEC2"
		},
		{
			"bufferView":33,
			"componentType":5126,
			"count":8,
			"type":"VEC2"
		},
		{
			"bufferView":34,
			"componentType":5126,
			"count":2408,
			"max":[
				44.20314407348633,
				41.67694091796875,
				388.50079345703125
			],
			"min":[
				-140.8892059326172,
				-491.87847900390625,
				-548.951171875
			],
			"type":"VEC3"
		},
		{
			"bufferView":35,
			"componentType":5126,
			"count":2408,
			"type":"VEC3"
		},
		{
			"bufferView":36,
			"componentType":5126,
			"count":2408,
			"type":"VEC2"
		},
		{
			"bufferView":37,
			"componentType":5126,
			"count":2408,
			"type":"VEC2"
		},
		{
			"bufferView":38,
			"componentType":5123,
			"count":5454,
			"type":"SCALAR"
		},
		{
			"bufferView":39,
			"componentType":5126,
			"count":8,
			"max":[
				37.15774917602539,
				-6.93316650390625,
				322.491943359375
			],
			"min":[
				5.157756805419922,
				-423.93316650390625,
				-482.508056640625
			],
			"type":"VEC3"
		},
		{
			"bufferView":40,
			"componentType":5126,
			"count":8,
			"type":"VEC3"
		},
		{
			"bufferView":41,
			"componentType":5126,
			"count":8,
			"type":"VEC2"
		},
		{
			"bufferView":42,
			"componentType":5126,
			"count":8,
			"type":"VEC2"
		},
		{
			"bufferView":43,
			"componentType":5126,
			"count":2862,
			"max":[
				42.15776443481445,
				38.91680908203125,
				388.1419982910156
			],
			"min":[
				-59.84223937988281,
				-24.43707275390625,
				-548.1580810546875
			],
			"type":"VEC3"
		},
		{
			"bufferView":44,
			"componentType":5126,
			"count":2862,
			"type":"VEC3"
		},
		{
			"bufferView":45,
			"componentType":5126,
			"count":2862,
			"type":"VEC2"
		},
		{
			"bufferView":46,
			"componentType":5126,
			"count":2862,
			"type":"VEC2"
		},
		{
			"bufferView":47,
			"componentType":5123,
			"count":3312,
			"type":"SCALAR"
		},
		{
			"bufferView":48,
			"componentType":5126,
			"count":1059,
			"max":[
				109.98347473144531,
				1024.9468994140625,
				514.6138305664062
			],
			"min":[
				-24.632633209228516,
				-1019.2863159179688,
				-485.8406982421875
			],
			"type":"VEC3"
		},
		{
			"bufferView":49,
			"componentType":5126,
			"count":1059,
			"type":"VEC3"
		},
		{
			"bufferView":50,
			"componentType":5126,
			"count":1059,
			"type":"VEC2"
		},
		{
			"bufferView":51,
			"componentType":5126,
			"count":1059,
			"type":"VEC2"
		},
		{
			"bufferView":52,
			"componentType":5123,
			"count":3120,
			"type":"SCALAR"
		},
		{
			"bufferView":53,
			"componentType":5126,
			"count":2403,
			"max":[
				98.85974884033203,
				1009.5763549804688,
				482.7449035644531
			],
			"min":[
				-90.68513488769531,
				479.794677734375,
				-455.4482421875
			],
			"type":"VEC3"
		},
		{
			"bufferView":54,
			"componentType":5126,
			"count":2403,
			"type":"VEC3"
		},
		{
			"bufferView":55,
			"componentType":5126,
			"count":2403,
			"type":"VEC2"
		},
		{
			"bufferView":56,
			"componentType":5126,
			"count":2403,
			"type":"VEC2"
		},
		{
			"bufferView":57,
			"componentType":5123,
			"count":5460,
			"type":"SCALAR"
		},
		{
			"bufferView":58,
			"componentType":5126,
			"count":8,
			"max":[
				92.24962615966797,
				942.0730590820312,
				417.02301025390625
			],
			"min":[
				60.2496337890625,
				525.0730590820312,
				-387.97698974609375
			],
			"type":"VEC3"
		},
		{
			"bufferView":59,
			"componentType":5126,
			"count":8,
			"type":"VEC3"
		},
		{
			"bufferView":60,
			"componentType":5126,
			"count":8,
			"type":"VEC2"
		},
		{
			"bufferView":61,
			"componentType":5126,
			"count":8,
			"type":"VEC2"
		},
		{
			"bufferView":62,
			"componentType":5126,
			"count":54526,
			"max":[
				104.73563385009766,
				986.5239868164062,
				40.45051574707031
			],
			"min":[
				92.23563385009766,
				954.5239868164062,
				-99.54946899414062
			],
			"type":"VEC3"
		},
		{
			"bufferView":63,
			"componentType":5126,
			"count":54526,
			"type":"VEC3"
		},
		{
			"bufferView":64,
			"componentType":5126,
			"count":54526,
			"type":"VEC2"
		},
		{
			"bufferView":65,
			"componentType":5126,
			"count":54526,
			"type":"VEC2"
		},
		{
			"bufferView":66,
			"componentType":5123,
			"count":63648,
			"type":"SCALAR"
		},
		{
			"bufferView":67,
			"componentType":5126,
			"count":72468,
			"max":[
				149.8842010498047,
				982.5526733398438,
				-0.118560791015625
			],
			"min":[
				95.23553466796875,
				903.754638671875,
				-79.04904174804688
			],
			"type":"VEC3"
		},
		{
			"bufferView":68,
			"componentType":5126,
			"count":72468,
			"type":"VEC3"
		},
		{
			"bufferView":69,
			"componentType":5126,
			"count":72468,
			"type":"VEC2"
		},
		{
			"bufferView":70,
			"componentType":5126,
			"count":72468,
			"type":"VEC2"
		},
		{
			"bufferView":71,
			"componentType":5125,
			"count":82884,
			"type":"SCALAR"
		}
	],
	"bufferViews":[
		{
			"buffer":0,
			"byteLength":768,
			"byteOffset":0,
			"target":34962
		},
		{
			"buffer":0,
			"byteLength":768,
			"byteOffset":768,
			"target":34962
		},
		{
			"buffer":0,
			"byteLength":512,
			"byteOffset":1536,
			"target":34962
		},
		{
			"buffer":0,
			"byteLength":512,
			"byteOffset":2048,
			"target":34962
		},
		{
			"buffer":0,
			"byteLength":192,
			"byteOffset":2560,
			"target":34963
		},
		{
			"buffer":0,
			"byteLength":48,
			"byteOffset":2752,
			"target":34962
		},
		{
			"buffer":0,
			"byteLength":48,
			"byteOffset":2800,
			"target":34962
		},
		{
			"buffer":0,
			"byteLength":32,
			"byteOffset":2848,
			"target":34962
		},
		{
			"buffer":0,
			"byteLength":32,
			"byteOffset":2880,
			"target":34962
		},
		{
			"buffer":0,
			"byteLength":12,
			"byteOffset":2912,
			"target":34963
		},
		{
			"buffer":0,
			"byteLength":1920,
			"byteOffset":2924,
			"target":34962
		},
		{
			"buffer":0,
			"byteLength":1920,
			"byteOffset":4844,
			"target":34962
		},
		{
			"buffer":0,
			"byteLength":1280,
			"byteOffset":6764,
			"target":34962
		},
		{
			"buffer":0,
			"byteLength":1280,
			"byteOffset":8044,
			"target":34962
		},
		{
			"buffer":0,
			"byteLength":480,
			"byteOffset":9324,
			"target":34963
		},
		{
			"buffer":0,
			"byteLength":12360,
			"byteOffset":9804,
			"target":34962
		},
		{
			"buffer":0,
			"byteLength":12360,
			"byteOffset":22164,
			"target":34962
		},
		{
			"buffer":0,
			"byteLength":8240,
			"byteOffset":34524,
			"target":34962
		},
		{
			"buffer":0,
			"byteLength":8240,
			"byteOffset":42764,
			"target":34962
		},
		{
			"buffer":0,
			"byteLength":5112,
			"byteOffset":51004,
			"target":34963
		},
		{
			"buffer":0,
			"byteLength":96,
			"byteOffset":56116,
			"target":34962
		},
		{
			"buffer":0,
			"byteLength":96,
			"byteOffset":56212,
			"target":34962
		},
		{
			"buffer":0,
			"byteLength":64,
			"byteOffset":56308,
			"target":34962
		},
		{
			"buffer":0,
			"byteLength":64,
			"byteOffset":56372,
			"target":34962
		},
		{
			"buffer":0,
			"byteLength":24,
			"byteOffset":56436,
			"target":34963
		},
		{
			"buffer":0,
			"byteLength":5736,
			"byteOffset":56460,
			"target":34962
		},
		{
			"buffer":0,
			"byteLength":5736,
			"byteOffset":62196,
			"target":34962
		},
		{
			"buffer":0,
			"byteLength":3824,
			"byteOffset":67932,
			"target":34962
		},
		{
			"buffer":0,
			"byteLength":3824,
			"byteOffset":71756,
			"target":34962
		},
		{
			"buffer":0,
			"byteLength":2160,
			"byteOffset":75580,
			"target":34963
		},
		{
			"buffer":0,
			"byteLength":96,
			"byteOffset":77740,
			"target":34962
		},
		{
			"buffer":0,
			"byteLength":96,
			"byteOffset":77836,
			"target":34962
		},
		{
			"buffer":0,
			"byteLength":64,
			"byteOffset":77932,
			"target":34962
		},
		{
			"buffer":0,
			"byteLength":64,
			"byteOffset":77996,
			"target":34962
		},
		{
			"buffer":0,
			"byteLength":28896,
			"byteOffset":78060,
			"target":34962
		},
		{
			"buffer":0,
			"byteLength":28896,
			"byteOffset":106956,
			"target":34962
		},
		{
			"buffer":0,
			"byteLength":19264,
			"byteOffset":135852,
			"target":34962
		},
		{
			"buffer":0,
			"byteLength":19264,
			"byteOffset":155116,
			"target":34962
		},
		{
			"buffer":0,
			"byteLength":10908,
			"byteOffset":174380,
			"target":34963
		},
		{
			"buffer":0,
			"byteLength":96,
			"byteOffset":185288,
			"target":34962
		},
		{
			"buffer":0,
			"byteLength":96,
			"byteOffset":185384,
			"target":34962
		},
		{
			"buffer":0,
			"byteLength":64,
			"byteOffset":185480,
			"target":34962
		},
		{
			"buffer":0,
			"byteLength":64,
			"byteOffset":185544,
			"target":34962
		},
		{
			"buffer":0,
			"byteLength":34344,
			"byteOffset":185608,
			"target":34962
		},
		{
			"buffer":0,
			"byteLength":34344,
			"byteOffset":219952,
			"target":34962
		},
		{
			"buffer":0,
			"byteLength":22896,
			"byteOffset":254296,
			"target":34962
		},
		{
			"buffer":0,
			"byteLength":22896,
			"byteOffset":277192,
			"target":34962
		},
		{
			"buffer":0,
			"byteLength":6624,
			"byteOffset":300088,
			"target":34963
		},
		{
			"buffer":0,
			"byteLength":12708,
			"byteOffset":306712,
			"target":34962
		},
		{
			"buffer":0,
			"byteLength":12708,
			"byteOffset":319420,
			"target":34962
		},
		{
			"buffer":0,
			"byteLength":8472,
			"byteOffset":332128,
			"target":34962
		},
		{
			"buffer":0,
			"byteLength":8472,
			"byteOffset":340600,
			"target":34962
		},
		{
			"buffer":0,
			"byteLength":6240,
			"byteOffset":349072,
			"target":34963
		},
		{
			"buffer":0,
			"byteLength":28836,
			"byteOffset":355312,
			"target":34962
		},
		{
			"buffer":0,
			"byteLength":28836,
			"byteOffset":384148,
			"target":34962
		},
		{
			"buffer":0,
			"byteLength":19224,
			"byteOffset":412984,
			"target":34962
		},
		{
			"buffer":0,
			"byteLength":19224,
			"byteOffset":432208,
			"target":34962
		},
		{
			"buffer":0,
			"byteLength":10920,
			"byteOffset":451432,
			"target":34963
		},
		{
			"buffer":0,
			"byteLength":96,
			"byteOffset":462352,
			"target":34962
		},
		{
			"buffer":0,
			"byteLength":96,
			"byteOffset":462448,
			"target":34962
		},
		{
			"buffer":0,
			"byteLength":64,
			"byteOffset":462544,
			"target":34962
		},
		{
			"buffer":0,
			"byteLength":64,
			"byteOffset":462608,
			"target":34962
		},
		{
			"buffer":0,
			"byteLength":654312,
			"byteOffset":462672,
			"target":34962
		},
		{
			"buffer":0,
			"byteLength":654312,
			"byteOffset":1116984,
			"target":34962
		},
		{
			"buffer":0,
			"byteLength":436208,
			"byteOffset":1771296,
			"target":34962
		},
		{
			"buffer":0,
			"byteLength":436208,
			"byteOffset":2207504,
			"target":34962
		},
		{
			"buffer":0,
			"byteLength":127296,
			"byteOffset":2643712,
			"target":34963
		},
		{
			"buffer":0,
			"byteLength":869616,
			"byteOffset":2771008,
			"target":34962
		},
		{
			"buffer":0,
			"byteLength":869616,
			"byteOffset":3640624,
			"target":34962
		},
		{
			"buffer":0,
			"byteLength":579744,
			"byteOffset":4510240,
			"target":34962
		},
		{
			"buffer":0,
			"byteLength":579744,
			"byteOffset":5089984,
			"target":34962
		},
		{
			"buffer":0,
			"byteLength":331536,
			"byteOffset":5669728,
			"target":34963
		}
	],
	"samplers":[
		{
			"magFilter":9729,
			"minFilter":9987
		}
	],
	"buffers":[
		{
			"byteLength":6001264,
			"uri":"Fenesta_window.bin"
		}
	]
}
