{
	"asset":{
		"generator":"Khronos glTF Blender I/O v4.3.47",
		"version":"2.0"
	},
	"extensionsUsed":[
		"KHR_materials_clearcoat",
		"KHR_materials_transmission",
		"KHR_materials_ior"
	],
	"scene":0,
	"scenes":[
		{
			"name":"Scene",
			"nodes":[
				0
			]
		}
	],
	"nodes":[
		{
			"mesh":0,
			"name":"Window_panel_01",
			"rotation":[
				0.7071068286895752,
				0,
				0,
				0.7071068286895752
			],
			"scale":[
				0.0021623356733471155,
				0.0021623356733471155,
				0.0021623356733471155
			],
			"translation":[
				0.04785391315817833,
				-1.0444416999816895,
				1.587244987487793
			]
		}
	],
	"materials":[
		{
			"doubleSided":true,
			"name":"Mat_3",
			"pbrMetallicRoughness":{
				"baseColorFactor":[
					0.0811493918299675,
					0.0811493918299675,
					0.0811493918299675,
					1
				],
				"metallicFactor":0.4029850661754608,
				"roughnessFactor":0.3731343150138855
			}
		},
		{
			"alphaMode":"BLEND",
			"doubleSided":true,
			"extensions":{
				"KHR_materials_clearcoat":{
					"clearcoatFactor":0.16231343150138855,
					"clearcoatRoughnessFactor":0.09716418385505676
				},
				"KHR_materials_transmission":{
					"transmissionFactor":1
				},
				"KHR_materials_ior":{
					"ior":1.4500000476837158
				}
			},
			"name":"Mat_2",
			"pbrMetallicRoughness":{
				"baseColorFactor":[
					0.800000011920929,
					0.800000011920929,
					0.800000011920929,
					0.608208954334259
				],
				"metallicFactor":0,
				"roughnessFactor":0.5
			}
		}
	],
	"meshes":[
		{
			"name":"Window_panel_01",
			"primitives":[
				{
					"attributes":{
						"POSITION":0,
						"NORMAL":1,
						"TEXCOORD_0":2,
						"TEXCOORD_1":3
					},
					"indices":4,
					"material":0
				},
				{
					"attributes":{
						"POSITION":5,
						"NORMAL":6,
						"TEXCOORD_0":7,
						"TEXCOORD_1":8
					},
					"indices":9,
					"material":1
				}
			]
		}
	],
	"accessors":[
		{
			"bufferView":0,
			"componentType":5126,
			"count":2418,
			"max":[
				22.609416961669922,
				275.78350830078125,
				0
			],
			"min":[
				-166.9354705810547,
				-253.9981689453125,
				-938.1931762695312
			],
			"type":"VEC3"
		},
		{
			"bufferView":1,
			"componentType":5126,
			"count":2418,
			"type":"VEC3"
		},
		{
			"bufferView":2,
			"componentType":5126,
			"count":2418,
			"type":"VEC2"
		},
		{
			"bufferView":3,
			"componentType":5126,
			"count":2418,
			"type":"VEC2"
		},
		{
			"bufferView":4,
			"componentType":5123,
			"count":5460,
			"type":"SCALAR"
		},
		{
			"bufferView":5,
			"componentType":5126,
			"count":48,
			"max":[
				15.99929428100586,
				208.28021240234375,
				-65.721923828125
			],
			"min":[
				-16.000701904296875,
				-208.71978759765625,
				-870.721923828125
			],
			"type":"VEC3"
		},
		{
			"bufferView":6,
			"componentType":5126,
			"count":48,
			"type":"VEC3"
		},
		{
			"bufferView":7,
			"componentType":5126,
			"count":48,
			"type":"VEC2"
		},
		{
			"bufferView":8,
			"componentType":5126,
			"count":48,
			"type":"VEC2"
		},
		{
			"bufferView":9,
			"componentType":5123,
			"count":72,
			"type":"SCALAR"
		}
	],
	"bufferViews":[
		{
			"buffer":0,
			"byteLength":29016,
			"byteOffset":0,
			"target":34962
		},
		{
			"buffer":0,
			"byteLength":29016,
			"byteOffset":29016,
			"target":34962
		},
		{
			"buffer":0,
			"byteLength":19344,
			"byteOffset":58032,
			"target":34962
		},
		{
			"buffer":0,
			"byteLength":19344,
			"byteOffset":77376,
			"target":34962
		},
		{
			"buffer":0,
			"byteLength":10920,
			"byteOffset":96720,
			"target":34963
		},
		{
			"buffer":0,
			"byteLength":576,
			"byteOffset":107640,
			"target":34962
		},
		{
			"buffer":0,
			"byteLength":576,
			"byteOffset":108216,
			"target":34962
		},
		{
			"buffer":0,
			"byteLength":384,
			"byteOffset":108792,
			"target":34962
		},
		{
			"buffer":0,
			"byteLength":384,
			"byteOffset":109176,
			"target":34962
		},
		{
			"buffer":0,
			"byteLength":144,
			"byteOffset":109560,
			"target":34963
		}
	],
	"buffers":[
		{
			"byteLength":109704,
			"uri":"Window_panel_01.bin"
		}
	]
}
