{
	"asset":{
		"generator":"Khronos glTF Blender I/O v4.3.47",
		"version":"2.0"
	},
	"extensionsUsed":[
		"KHR_materials_clearcoat",
		"KHR_materials_transmission",
		"KHR_materials_specular",
		"KHR_materials_ior"
	],
	"scene":0,
	"scenes":[
		{
			"name":"Scene",
			"nodes":[
				0,
				1,
				2,
				3
			]
		}
	],
	"nodes":[
		{
			"mesh":0,
			"name":"Window_panel_02",
			"rotation":[
				0.7071068286895752,
				0,
				0,
				0.7071068286895752
			],
			"scale":[
				0.0021623356733471155,
				0.0021623356733471155,
				0.0021623356733471155
			],
			"translation":[
				-0.08178956061601639,
				-1.0444414615631104,
				0.6223995685577393
			]
		},
		{
			"mesh":1,
			"name":"Window_panel_03",
			"rotation":[
				0.7071068286895752,
				0,
				0,
				0.7071068286895752
			],
			"scale":[
				0.0021623356733471155,
				0.0021623356733471155,
				0.0021623356733471155
			],
			"translation":[
				-0.08197176456451416,
				-1.0444412231445312,
				-0.6165517568588257
			]
		},
		{
			"mesh":2,
			"name":"Window_panel_04",
			"rotation":[
				0.7071068286895752,
				0,
				0,
				0.7071068286895752
			],
			"scale":[
				0.0021623356733471155,
				0.0021623356733471155,
				0.0021623356733471155
			],
			"translation":[
				0.054340511560440063,
				-1.008913278579712,
				-1.5737348794937134
			]
		},
		{
			"mesh":3,
			"name":"Window_panel_01",
			"rotation":[
				0.7071068286895752,
				0,
				0,
				0.7071068286895752
			],
			"scale":[
				0.0021623356733471155,
				0.0021623356733471155,
				0.0021623356733471155
			],
			"translation":[
				0.04785391315817833,
				-1.0444416999816895,
				1.587244987487793
			]
		}
	],
	"materials":[
		{
			"doubleSided":true,
			"name":"Mat_3",
			"pbrMetallicRoughness":{
				"baseColorFactor":[
					0.0811493918299675,
					0.0811493918299675,
					0.0811493918299675,
					1
				],
				"metallicFactor":0.4029850661754608,
				"roughnessFactor":0.3731343150138855
			}
		},
		{
			"alphaMode":"BLEND",
			"doubleSided":true,
			"extensions":{
				"KHR_materials_clearcoat":{
					"clearcoatFactor":0.16231343150138855,
					"clearcoatRoughnessFactor":0.09716418385505676
				},
				"KHR_materials_transmission":{
					"transmissionFactor":1
				},
				"KHR_materials_ior":{
					"ior":1.4500000476837158
				}
			},
			"name":"Mat_2",
			"pbrMetallicRoughness":{
				"baseColorFactor":[
					0.800000011920929,
					0.800000011920929,
					0.800000011920929,
					0.608208954334259
				],
				"metallicFactor":0,
				"roughnessFactor":0.5
			}
		},
		{
			"doubleSided":true,
			"extensions":{
				"KHR_materials_specular":{
					"specularColorFactor":[
						2.0,
						2.0,
						2.0
					]
				},
				"KHR_materials_ior":{
					"ior":1.4500000476837158
				}
			},
			"name":"Mat_1",
			"pbrMetallicRoughness":{
				"baseColorTexture":{
					"index":0,
					"texCoord":1
				},
				"metallicFactor":0
			}
		}
	],
	"meshes":[
		{
			"name":"DG Aperture 2T4P.005",
			"primitives":[
				{
					"attributes":{
						"POSITION":0,
						"NORMAL":1,
						"TEXCOORD_0":2,
						"TEXCOORD_1":3
					},
					"indices":4,
					"material":0
				},
				{
					"attributes":{
						"POSITION":5,
						"NORMAL":6,
						"TEXCOORD_0":7,
						"TEXCOORD_1":8
					},
					"indices":9,
					"material":1
				}
			]
		},
		{
			"name":"DG Aperture 2T4P.007",
			"primitives":[
				{
					"attributes":{
						"POSITION":10,
						"NORMAL":11,
						"TEXCOORD_0":12,
						"TEXCOORD_1":13
					},
					"indices":14,
					"material":0
				},
				{
					"attributes":{
						"POSITION":15,
						"NORMAL":16,
						"TEXCOORD_0":17,
						"TEXCOORD_1":18
					},
					"indices":9,
					"material":1
				}
			]
		},
		{
			"name":"DG Aperture 2T4P.009",
			"primitives":[
				{
					"attributes":{
						"POSITION":19,
						"NORMAL":20,
						"TEXCOORD_0":21,
						"TEXCOORD_1":22
					},
					"indices":23,
					"material":0
				},
				{
					"attributes":{
						"POSITION":24,
						"NORMAL":25,
						"TEXCOORD_0":26,
						"TEXCOORD_1":27
					},
					"indices":9,
					"material":1
				},
				{
					"attributes":{
						"POSITION":28,
						"NORMAL":29,
						"TEXCOORD_0":30,
						"TEXCOORD_1":31
					},
					"indices":32,
					"material":2
				}
			]
		},
		{
			"name":"DG Aperture 2T4P.012",
			"primitives":[
				{
					"attributes":{
						"POSITION":33,
						"NORMAL":34,
						"TEXCOORD_0":35,
						"TEXCOORD_1":36
					},
					"indices":37,
					"material":0
				},
				{
					"attributes":{
						"POSITION":38,
						"NORMAL":39,
						"TEXCOORD_0":40,
						"TEXCOORD_1":41
					},
					"indices":9,
					"material":1
				}
			]
		}
	],
	"textures":[
		{
			"sampler":0,
			"source":0
		}
	],
	"images":[
		{
			"mimeType":"image/png",
			"name":"Untitled",
			"uri":"Untitled.png"
		}
	],
	"accessors":[
		{
			"bufferView":0,
			"componentType":5126,
			"count":1030,
			"max":[
				25.37729263305664,
				197.68170166015625,
				0.0001220703125
			],
			"min":[
				-25.432994842529297,
				-304.56597900390625,
				-936.5621337890625
			],
			"type":"VEC3"
		},
		{
			"bufferView":1,
			"componentType":5126,
			"count":1030,
			"type":"VEC3"
		},
		{
			"bufferView":2,
			"componentType":5126,
			"count":1030,
			"type":"VEC2"
		},
		{
			"bufferView":3,
			"componentType":5126,
			"count":1030,
			"type":"VEC2"
		},
		{
			"bufferView":4,
			"componentType":5123,
			"count":2556,
			"type":"SCALAR"
		},
		{
			"bufferView":5,
			"componentType":5126,
			"count":48,
			"max":[
				15.954586029052734,
				209.38592529296875,
				-65.7218017578125
			],
			"min":[
				-16.045412063598633,
				-207.61412048339844,
				-870.7218627929688
			],
			"type":"VEC3"
		},
		{
			"bufferView":6,
			"componentType":5126,
			"count":48,
			"type":"VEC3"
		},
		{
			"bufferView":7,
			"componentType":5126,
			"count":48,
			"type":"VEC2"
		},
		{
			"bufferView":8,
			"componentType":5126,
			"count":48,
			"type":"VEC2"
		},
		{
			"bufferView":9,
			"componentType":5123,
			"count":72,
			"type":"SCALAR"
		},
		{
			"bufferView":10,
			"componentType":5126,
			"count":478,
			"max":[
				22.146686553955078,
				278.7396545410156,
				9.1552734375e-05
			],
			"min":[
				-22.40918731689453,
				-197.68170166015625,
				-936.3358154296875
			],
			"type":"VEC3"
		},
		{
			"bufferView":11,
			"componentType":5126,
			"count":478,
			"type":"VEC3"
		},
		{
			"bufferView":12,
			"componentType":5126,
			"count":478,
			"type":"VEC2"
		},
		{
			"bufferView":13,
			"componentType":5126,
			"count":478,
			"type":"VEC2"
		},
		{
			"bufferView":14,
			"componentType":5123,
			"count":1080,
			"type":"SCALAR"
		},
		{
			"bufferView":15,
			"componentType":5126,
			"count":48,
			"max":[
				16.038846969604492,
				211.3537139892578,
				-65.72164916992188
			],
			"min":[
				-15.961151123046875,
				-205.64630126953125,
				-870.7216796875
			],
			"type":"VEC3"
		},
		{
			"bufferView":16,
			"componentType":5126,
			"count":48,
			"type":"VEC3"
		},
		{
			"bufferView":17,
			"componentType":5126,
			"count":48,
			"type":"VEC2"
		},
		{
			"bufferView":18,
			"componentType":5126,
			"count":48,
			"type":"VEC2"
		},
		{
			"bufferView":19,
			"componentType":5126,
			"count":2400,
			"max":[
				20.04485511779785,
				257.6265869140625,
				16.71759033203125
			],
			"min":[
				-165.04750061035156,
				-275.9288330078125,
				-920.734375
			],
			"type":"VEC3"
		},
		{
			"bufferView":20,
			"componentType":5126,
			"count":2400,
			"type":"VEC3"
		},
		{
			"bufferView":21,
			"componentType":5126,
			"count":2400,
			"type":"VEC2"
		},
		{
			"bufferView":22,
			"componentType":5126,
			"count":2400,
			"type":"VEC2"
		},
		{
			"bufferView":23,
			"componentType":5123,
			"count":5454,
			"type":"SCALAR"
		},
		{
			"bufferView":24,
			"componentType":5126,
			"count":48,
			"max":[
				12.999460220336914,
				209.0164794921875,
				-49.291259765625
			],
			"min":[
				-19.000534057617188,
				-207.98358154296875,
				-854.291259765625
			],
			"type":"VEC3"
		},
		{
			"bufferView":25,
			"componentType":5126,
			"count":48,
			"type":"VEC3"
		},
		{
			"bufferView":26,
			"componentType":5126,
			"count":48,
			"type":"VEC2"
		},
		{
			"bufferView":27,
			"componentType":5126,
			"count":48,
			"type":"VEC2"
		},
		{
			"bufferView":28,
			"componentType":5126,
			"count":2862,
			"max":[
				17.999475479125977,
				254.866455078125,
				16.358795166015625
			],
			"min":[
				-84.00052642822266,
				191.5125732421875,
				-919.9412841796875
			],
			"type":"VEC3"
		},
		{
			"bufferView":29,
			"componentType":5126,
			"count":2862,
			"type":"VEC3"
		},
		{
			"bufferView":30,
			"componentType":5126,
			"count":2862,
			"type":"VEC2"
		},
		{
			"bufferView":31,
			"componentType":5126,
			"count":2862,
			"type":"VEC2"
		},
		{
			"bufferView":32,
			"componentType":5123,
			"count":3312,
			"type":"SCALAR"
		},
		{
			"bufferView":33,
			"componentType":5126,
			"count":2418,
			"max":[
				22.609416961669922,
				275.78350830078125,
				0
			],
			"min":[
				-166.9354705810547,
				-253.9981689453125,
				-938.1931762695312
			],
			"type":"VEC3"
		},
		{
			"bufferView":34,
			"componentType":5126,
			"count":2418,
			"type":"VEC3"
		},
		{
			"bufferView":35,
			"componentType":5126,
			"count":2418,
			"type":"VEC2"
		},
		{
			"bufferView":36,
			"componentType":5126,
			"count":2418,
			"type":"VEC2"
		},
		{
			"bufferView":37,
			"componentType":5123,
			"count":5460,
			"type":"SCALAR"
		},
		{
			"bufferView":38,
			"componentType":5126,
			"count":48,
			"max":[
				15.99929428100586,
				208.28021240234375,
				-65.721923828125
			],
			"min":[
				-16.000701904296875,
				-208.71978759765625,
				-870.721923828125
			],
			"type":"VEC3"
		},
		{
			"bufferView":39,
			"componentType":5126,
			"count":48,
			"type":"VEC3"
		},
		{
			"bufferView":40,
			"componentType":5126,
			"count":48,
			"type":"VEC2"
		},
		{
			"bufferView":41,
			"componentType":5126,
			"count":48,
			"type":"VEC2"
		}
	],
	"bufferViews":[
		{
			"buffer":0,
			"byteLength":12360,
			"byteOffset":0,
			"target":34962
		},
		{
			"buffer":0,
			"byteLength":12360,
			"byteOffset":12360,
			"target":34962
		},
		{
			"buffer":0,
			"byteLength":8240,
			"byteOffset":24720,
			"target":34962
		},
		{
			"buffer":0,
			"byteLength":8240,
			"byteOffset":32960,
			"target":34962
		},
		{
			"buffer":0,
			"byteLength":5112,
			"byteOffset":41200,
			"target":34963
		},
		{
			"buffer":0,
			"byteLength":576,
			"byteOffset":46312,
			"target":34962
		},
		{
			"buffer":0,
			"byteLength":576,
			"byteOffset":46888,
			"target":34962
		},
		{
			"buffer":0,
			"byteLength":384,
			"byteOffset":47464,
			"target":34962
		},
		{
			"buffer":0,
			"byteLength":384,
			"byteOffset":47848,
			"target":34962
		},
		{
			"buffer":0,
			"byteLength":144,
			"byteOffset":48232,
			"target":34963
		},
		{
			"buffer":0,
			"byteLength":5736,
			"byteOffset":48376,
			"target":34962
		},
		{
			"buffer":0,
			"byteLength":5736,
			"byteOffset":54112,
			"target":34962
		},
		{
			"buffer":0,
			"byteLength":3824,
			"byteOffset":59848,
			"target":34962
		},
		{
			"buffer":0,
			"byteLength":3824,
			"byteOffset":63672,
			"target":34962
		},
		{
			"buffer":0,
			"byteLength":2160,
			"byteOffset":67496,
			"target":34963
		},
		{
			"buffer":0,
			"byteLength":576,
			"byteOffset":69656,
			"target":34962
		},
		{
			"buffer":0,
			"byteLength":576,
			"byteOffset":70232,
			"target":34962
		},
		{
			"buffer":0,
			"byteLength":384,
			"byteOffset":70808,
			"target":34962
		},
		{
			"buffer":0,
			"byteLength":384,
			"byteOffset":71192,
			"target":34962
		},
		{
			"buffer":0,
			"byteLength":28800,
			"byteOffset":71576,
			"target":34962
		},
		{
			"buffer":0,
			"byteLength":28800,
			"byteOffset":100376,
			"target":34962
		},
		{
			"buffer":0,
			"byteLength":19200,
			"byteOffset":129176,
			"target":34962
		},
		{
			"buffer":0,
			"byteLength":19200,
			"byteOffset":148376,
			"target":34962
		},
		{
			"buffer":0,
			"byteLength":10908,
			"byteOffset":167576,
			"target":34963
		},
		{
			"buffer":0,
			"byteLength":576,
			"byteOffset":178484,
			"target":34962
		},
		{
			"buffer":0,
			"byteLength":576,
			"byteOffset":179060,
			"target":34962
		},
		{
			"buffer":0,
			"byteLength":384,
			"byteOffset":179636,
			"target":34962
		},
		{
			"buffer":0,
			"byteLength":384,
			"byteOffset":180020,
			"target":34962
		},
		{
			"buffer":0,
			"byteLength":34344,
			"byteOffset":180404,
			"target":34962
		},
		{
			"buffer":0,
			"byteLength":34344,
			"byteOffset":214748,
			"target":34962
		},
		{
			"buffer":0,
			"byteLength":22896,
			"byteOffset":249092,
			"target":34962
		},
		{
			"buffer":0,
			"byteLength":22896,
			"byteOffset":271988,
			"target":34962
		},
		{
			"buffer":0,
			"byteLength":6624,
			"byteOffset":294884,
			"target":34963
		},
		{
			"buffer":0,
			"byteLength":29016,
			"byteOffset":301508,
			"target":34962
		},
		{
			"buffer":0,
			"byteLength":29016,
			"byteOffset":330524,
			"target":34962
		},
		{
			"buffer":0,
			"byteLength":19344,
			"byteOffset":359540,
			"target":34962
		},
		{
			"buffer":0,
			"byteLength":19344,
			"byteOffset":378884,
			"target":34962
		},
		{
			"buffer":0,
			"byteLength":10920,
			"byteOffset":398228,
			"target":34963
		},
		{
			"buffer":0,
			"byteLength":576,
			"byteOffset":409148,
			"target":34962
		},
		{
			"buffer":0,
			"byteLength":576,
			"byteOffset":409724,
			"target":34962
		},
		{
			"buffer":0,
			"byteLength":384,
			"byteOffset":410300,
			"target":34962
		},
		{
			"buffer":0,
			"byteLength":384,
			"byteOffset":410684,
			"target":34962
		}
	],
	"samplers":[
		{
			"magFilter":9729,
			"minFilter":9987
		}
	],
	"buffers":[
		{
			"byteLength":411068,
			"uri":"Window_panels.bin"
		}
	]
}
