{
	"asset":{
		"generator":"Khronos glTF Blender I/O v4.3.47",
		"version":"2.0"
	},
	"extensionsUsed":[
		"KHR_materials_clearcoat",
		"KHR_materials_transmission",
		"KHR_materials_specular",
		"KHR_materials_ior"
	],
	"scene":0,
	"scenes":[
		{
			"name":"Scene",
			"nodes":[
				0,
				1,
				2,
				3,
				4,
				5
			]
		}
	],
	"nodes":[
		{
			"mesh":0,
			"name":"Window_frame.002",
			"rotation":[
				0.7071068286895752,
				0,
				0,
				0.7071068286895752
			],
			"scale":[
				0.0021623356733471155,
				0.0021623356733471155,
				0.0021623356733471155
			],
			"translation":[
				-0.11702489852905273,
				-0.0005851984024047852,
				0.0005384683609008789
			]
		},
		{
			"mesh":1,
			"name":"Window_panel_02.002",
			"rotation":[
				0.7071068286895752,
				0,
				0,
				0.7071068286895752
			],
			"scale":[
				0.0021623356733471155,
				0.0021623356733471155,
				0.0021623356733471155
			],
			"translation":[
				-0.08178956061601639,
				-1.0444413423538208,
				0.5808846354484558
			]
		},
		{
			"mesh":2,
			"name":"Window_panel_03.002",
			"rotation":[
				0.7071068286895752,
				0,
				0,
				0.7071068286895752
			],
			"scale":[
				0.0021623356733471155,
				0.0021623356733471155,
				0.0021623356733471155
			],
			"translation":[
				-0.08197177201509476,
				-1.0444412231445312,
				-0.613795280456543
			]
		},
		{
			"mesh":3,
			"name":"Window_panel_04.002",
			"rotation":[
				0.7071068286895752,
				0,
				0,
				0.7071068286895752
			],
			"scale":[
				0.0021623356733471155,
				0.0021623356733471155,
				0.0021623356733471155
			],
			"translation":[
				0.0546375997364521,
				-1.0439720153808594,
				-1.6147913932800293
			]
		},
		{
			"mesh":4,
			"name":"Window_rail.002",
			"rotation":[
				0.7071068286895752,
				0,
				0,
				0.7071068286895752
			],
			"scale":[
				0.0021623356733471155,
				0.0021623356733471155,
				0.0021623356733471155
			],
			"translation":[
				-0.016769826412200928,
				-1.1105594635009766,
				0.004814292304217815
			]
		},
		{
			"mesh":5,
			"name":"Window_panel_01.002",
			"rotation":[
				0.7071068286895752,
				0,
				0,
				0.7071068286895752
			],
			"scale":[
				0.0021623356733471155,
				0.0021623356733471155,
				0.0021623356733471155
			],
			"translation":[
				0.04785390943288803,
				-1.0444414615631104,
				1.6330209970474243
			]
		}
	],
	"materials":[
		{
			"doubleSided":true,
			"name":"Bricks",
			"normalTexture":{
				"index":0,
				"texCoord":1
			},
			"pbrMetallicRoughness":{
				"baseColorTexture":{
					"index":1,
					"texCoord":1
				},
				"metallicFactor":0,
				"metallicRoughnessTexture":{
					"index":2,
					"texCoord":1
				}
			}
		},
		{
			"doubleSided":true,
			"name":"Mat_3",
			"pbrMetallicRoughness":{
				"baseColorFactor":[
					0.0811493918299675,
					0.0811493918299675,
					0.0811493918299675,
					1
				],
				"metallicFactor":0.4029850661754608,
				"roughnessFactor":0.3731343150138855
			}
		},
		{
			"alphaMode":"BLEND",
			"doubleSided":true,
			"extensions":{
				"KHR_materials_clearcoat":{
					"clearcoatFactor":0.16231343150138855,
					"clearcoatRoughnessFactor":0.09716418385505676
				},
				"KHR_materials_transmission":{
					"transmissionFactor":1
				},
				"KHR_materials_ior":{
					"ior":1.4500000476837158
				}
			},
			"name":"Mat_2",
			"pbrMetallicRoughness":{
				"baseColorFactor":[
					0.800000011920929,
					0.800000011920929,
					0.800000011920929,
					0.608208954334259
				],
				"metallicFactor":0,
				"roughnessFactor":0.5
			}
		},
		{
			"doubleSided":true,
			"extensions":{
				"KHR_materials_specular":{
					"specularColorFactor":[
						2.0,
						2.0,
						2.0
					]
				},
				"KHR_materials_ior":{
					"ior":1.4500000476837158
				}
			},
			"name":"Mat_1",
			"pbrMetallicRoughness":{
				"baseColorTexture":{
					"index":3,
					"texCoord":1
				},
				"metallicFactor":0
			}
		},
		{
			"doubleSided":true,
			"extensions":{
				"KHR_materials_specular":{
					"specularColorFactor":[
						2.0,
						2.0,
						2.0
					]
				},
				"KHR_materials_ior":{
					"ior":1.4500000476837158
				}
			},
			"name":"Lock_mat",
			"pbrMetallicRoughness":{
				"baseColorFactor":[
					0.05382684990763664,
					0.05488462373614311,
					0.05810964107513428,
					1
				],
				"metallicFactor":0.8059701323509216,
				"roughnessFactor":0.38805967569351196
			}
		}
	],
	"meshes":[
		{
			"name":"Window_frame.002",
			"primitives":[
				{
					"attributes":{
						"POSITION":0,
						"NORMAL":1,
						"TEXCOORD_0":2,
						"TEXCOORD_1":3
					},
					"indices":4,
					"material":0
				}
			]
		},
		{
			"name":"Window_panel_02.002",
			"primitives":[
				{
					"attributes":{
						"POSITION":5,
						"NORMAL":6,
						"TEXCOORD_0":7,
						"TEXCOORD_1":8
					},
					"indices":9,
					"material":1
				},
				{
					"attributes":{
						"POSITION":10,
						"NORMAL":11,
						"TEXCOORD_0":12,
						"TEXCOORD_1":13
					},
					"indices":14,
					"material":2
				}
			]
		},
		{
			"name":"Window_panel_03.002",
			"primitives":[
				{
					"attributes":{
						"POSITION":15,
						"NORMAL":16,
						"TEXCOORD_0":17,
						"TEXCOORD_1":18
					},
					"indices":19,
					"material":1
				},
				{
					"attributes":{
						"POSITION":20,
						"NORMAL":21,
						"TEXCOORD_0":22,
						"TEXCOORD_1":23
					},
					"indices":14,
					"material":2
				}
			]
		},
		{
			"name":"Window_panel_04.002",
			"primitives":[
				{
					"attributes":{
						"POSITION":24,
						"NORMAL":25,
						"TEXCOORD_0":26,
						"TEXCOORD_1":27
					},
					"indices":28,
					"material":1
				},
				{
					"attributes":{
						"POSITION":29,
						"NORMAL":30,
						"TEXCOORD_0":31,
						"TEXCOORD_1":32
					},
					"indices":14,
					"material":2
				},
				{
					"attributes":{
						"POSITION":33,
						"NORMAL":34,
						"TEXCOORD_0":35,
						"TEXCOORD_1":36
					},
					"indices":37,
					"material":3
				},
				{
					"attributes":{
						"POSITION":38,
						"NORMAL":39,
						"TEXCOORD_0":40,
						"TEXCOORD_1":41
					},
					"indices":42,
					"material":4
				}
			]
		},
		{
			"name":"Window_rail.002",
			"primitives":[
				{
					"attributes":{
						"POSITION":43,
						"NORMAL":44,
						"TEXCOORD_0":45,
						"TEXCOORD_1":46
					},
					"indices":47,
					"material":1
				}
			]
		},
		{
			"name":"Window_panel_01.002",
			"primitives":[
				{
					"attributes":{
						"POSITION":48,
						"NORMAL":49,
						"TEXCOORD_0":50,
						"TEXCOORD_1":51
					},
					"indices":52,
					"material":1
				},
				{
					"attributes":{
						"POSITION":53,
						"NORMAL":54,
						"TEXCOORD_0":55,
						"TEXCOORD_1":56
					},
					"indices":14,
					"material":2
				},
				{
					"attributes":{
						"POSITION":57,
						"NORMAL":58,
						"TEXCOORD_0":59,
						"TEXCOORD_1":60
					},
					"indices":61,
					"material":4
				}
			]
		}
	],
	"textures":[
		{
			"sampler":0,
			"source":0
		},
		{
			"sampler":0,
			"source":1
		},
		{
			"sampler":0,
			"source":2
		},
		{
			"sampler":0,
			"source":3
		}
	],
	"images":[
		{
			"mimeType":"image/jpeg",
			"name":"Bricks059_2K_Normal",
			"uri":"Bricks059_2K_Normal.jpg"
		},
		{
			"mimeType":"image/jpeg",
			"name":"Bricks059_2K_Color",
			"uri":"Bricks059_2K_Color.jpg"
		},
		{
			"mimeType":"image/png",
			"name":"Bricks059_2K_Roughness",
			"uri":"Bricks059_2K_Roughness.png"
		},
		{
			"mimeType":"image/png",
			"name":"Untitled",
			"uri":"Untitled.png"
		}
	],
	"accessors":[
		{
			"bufferView":0,
			"componentType":5126,
			"count":64,
			"max":[
				142.47555541992188,
				1125.0205078125,
				614.373291015625
			],
			"min":[
				-57.52444076538086,
				-1118.9794921875,
				-585.626708984375
			],
			"type":"VEC3"
		},
		{
			"bufferView":1,
			"componentType":5126,
			"count":64,
			"type":"VEC3"
		},
		{
			"bufferView":2,
			"componentType":5126,
			"count":64,
			"type":"VEC2"
		},
		{
			"bufferView":3,
			"componentType":5126,
			"count":64,
			"type":"VEC2"
		},
		{
			"bufferView":4,
			"componentType":5123,
			"count":96,
			"type":"SCALAR"
		},
		{
			"bufferView":5,
			"componentType":5126,
			"count":478,
			"max":[
				22.70647621154785,
				216.88082885742188,
				0.0001220703125
			],
			"min":[
				-22.605806350708008,
				-255.3854522705078,
				-936.3358154296875
			],
			"type":"VEC3"
		},
		{
			"bufferView":6,
			"componentType":5126,
			"count":478,
			"type":"VEC3"
		},
		{
			"bufferView":7,
			"componentType":5126,
			"count":478,
			"type":"VEC2"
		},
		{
			"bufferView":8,
			"componentType":5126,
			"count":478,
			"type":"VEC2"
		},
		{
			"bufferView":9,
			"componentType":5123,
			"count":1080,
			"type":"SCALAR"
		},
		{
			"bufferView":10,
			"componentType":5126,
			"count":8,
			"max":[
				15.954584121704102,
				228.58505249023438,
				-26.9512939453125
			],
			"min":[
				-16.045412063598633,
				-219.08399963378906,
				-908.044921875
			],
			"type":"VEC3"
		},
		{
			"bufferView":11,
			"componentType":5126,
			"count":8,
			"type":"VEC3"
		},
		{
			"bufferView":12,
			"componentType":5126,
			"count":8,
			"type":"VEC2"
		},
		{
			"bufferView":13,
			"componentType":5126,
			"count":8,
			"type":"VEC2"
		},
		{
			"bufferView":14,
			"componentType":5123,
			"count":12,
			"type":"SCALAR"
		},
		{
			"bufferView":15,
			"componentType":5126,
			"count":478,
			"max":[
				22.146692276000977,
				277.46490478515625,
				9.1552734375e-05
			],
			"min":[
				-22.409181594848633,
				-198.30328369140625,
				-936.3358154296875
			],
			"type":"VEC3"
		},
		{
			"bufferView":16,
			"componentType":5126,
			"count":478,
			"type":"VEC3"
		},
		{
			"bufferView":17,
			"componentType":5126,
			"count":478,
			"type":"VEC2"
		},
		{
			"bufferView":18,
			"componentType":5126,
			"count":478,
			"type":"VEC2"
		},
		{
			"bufferView":19,
			"componentType":5123,
			"count":1080,
			"type":"SCALAR"
		},
		{
			"bufferView":20,
			"componentType":5126,
			"count":8,
			"max":[
				16.038848876953125,
				210.07891845703125,
				-26.596221923828125
			],
			"min":[
				-15.961145401000977,
				-206.9210662841797,
				-909.205078125
			],
			"type":"VEC3"
		},
		{
			"bufferView":21,
			"componentType":5126,
			"count":8,
			"type":"VEC3"
		},
		{
			"bufferView":22,
			"componentType":5126,
			"count":8,
			"type":"VEC2"
		},
		{
			"bufferView":23,
			"componentType":5126,
			"count":8,
			"type":"VEC2"
		},
		{
			"bufferView":24,
			"componentType":5126,
			"count":2320,
			"max":[
				19.90746307373047,
				276.61370849609375,
				0.504241943359375
			],
			"min":[
				-165.1848907470703,
				-256.94171142578125,
				-936.94775390625
			],
			"type":"VEC3"
		},
		{
			"bufferView":25,
			"componentType":5126,
			"count":2320,
			"type":"VEC3"
		},
		{
			"bufferView":26,
			"componentType":5126,
			"count":2320,
			"type":"VEC2"
		},
		{
			"bufferView":27,
			"componentType":5126,
			"count":2320,
			"type":"VEC2"
		},
		{
			"bufferView":28,
			"componentType":5123,
			"count":5238,
			"type":"SCALAR"
		},
		{
			"bufferView":29,
			"componentType":5126,
			"count":8,
			"max":[
				12.862068176269531,
				228.00360107421875,
				-28.97406005859375
			],
			"min":[
				-19.137924194335938,
				-226.62969970703125,
				-909.9931640625
			],
			"type":"VEC3"
		},
		{
			"bufferView":30,
			"componentType":5126,
			"count":8,
			"type":"VEC3"
		},
		{
			"bufferView":31,
			"componentType":5126,
			"count":8,
			"type":"VEC2"
		},
		{
			"bufferView":32,
			"componentType":5126,
			"count":8,
			"type":"VEC2"
		},
		{
			"bufferView":33,
			"componentType":5126,
			"count":1986,
			"max":[
				17.862083435058594,
				273.85357666015625,
				0.14544677734375
			],
			"min":[
				-84.13792419433594,
				210.49969482421875,
				-936.1546630859375
			],
			"type":"VEC3"
		},
		{
			"bufferView":34,
			"componentType":5126,
			"count":1986,
			"type":"VEC3"
		},
		{
			"bufferView":35,
			"componentType":5126,
			"count":1986,
			"type":"VEC2"
		},
		{
			"bufferView":36,
			"componentType":5126,
			"count":1986,
			"type":"VEC2"
		},
		{
			"bufferView":37,
			"componentType":5123,
			"count":3312,
			"type":"SCALAR"
		},
		{
			"bufferView":38,
			"componentType":5126,
			"count":44280,
			"max":[
				21.41309356689453,
				-224.8804168701172,
				-477.5213623046875
			],
			"min":[
				15.034980773925781,
				-241.2083740234375,
				-548.9561767578125
			],
			"type":"VEC3"
		},
		{
			"bufferView":39,
			"componentType":5126,
			"count":44280,
			"type":"VEC3"
		},
		{
			"bufferView":40,
			"componentType":5126,
			"count":44280,
			"type":"VEC2"
		},
		{
			"bufferView":41,
			"componentType":5126,
			"count":44280,
			"type":"VEC2"
		},
		{
			"bufferView":42,
			"componentType":5123,
			"count":63642,
			"type":"SCALAR"
		},
		{
			"bufferView":43,
			"componentType":5126,
			"count":1611,
			"max":[
				63.619224548339844,
				1022.9695434570312,
				1.29193115234375
			],
			"min":[
				-70.99688720703125,
				-1021.263671875,
				-999.16259765625
			],
			"type":"VEC3"
		},
		{
			"bufferView":44,
			"componentType":5126,
			"count":1611,
			"type":"VEC3"
		},
		{
			"bufferView":45,
			"componentType":5126,
			"count":1611,
			"type":"VEC2"
		},
		{
			"bufferView":46,
			"componentType":5126,
			"count":1611,
			"type":"VEC2"
		},
		{
			"bufferView":47,
			"componentType":5123,
			"count":4596,
			"type":"SCALAR"
		},
		{
			"bufferView":48,
			"componentType":5126,
			"count":2404,
			"max":[
				22.609424591064453,
				254.61383056640625,
				6.103515625e-05
			],
			"min":[
				-166.9354705810547,
				-275.1678466796875,
				-938.193115234375
			],
			"type":"VEC3"
		},
		{
			"bufferView":49,
			"componentType":5126,
			"count":2404,
			"type":"VEC3"
		},
		{
			"bufferView":50,
			"componentType":5126,
			"count":2404,
			"type":"VEC2"
		},
		{
			"bufferView":51,
			"componentType":5126,
			"count":2404,
			"type":"VEC2"
		},
		{
			"bufferView":52,
			"componentType":5123,
			"count":5460,
			"type":"SCALAR"
		},
		{
			"bufferView":53,
			"componentType":5126,
			"count":8,
			"max":[
				15.99930191040039,
				221.48699951171875,
				-14.02789306640625
			],
			"min":[
				-16.000694274902344,
				-229.88946533203125,
				-933.3882446289062
			],
			"type":"VEC3"
		},
		{
			"bufferView":54,
			"componentType":5126,
			"count":8,
			"type":"VEC3"
		},
		{
			"bufferView":55,
			"componentType":5126,
			"count":8,
			"type":"VEC2"
		},
		{
			"bufferView":56,
			"componentType":5126,
			"count":8,
			"type":"VEC2"
		},
		{
			"bufferView":57,
			"componentType":5126,
			"count":44282,
			"max":[
				24.5502986907959,
				238.96412658691406,
				-477.7384033203125
			],
			"min":[
				18.17218589782715,
				222.63616943359375,
				-549.1732177734375
			],
			"type":"VEC3"
		},
		{
			"bufferView":58,
			"componentType":5126,
			"count":44282,
			"type":"VEC3"
		},
		{
			"bufferView":59,
			"componentType":5126,
			"count":44282,
			"type":"VEC2"
		},
		{
			"bufferView":60,
			"componentType":5126,
			"count":44282,
			"type":"VEC2"
		},
		{
			"bufferView":61,
			"componentType":5123,
			"count":63642,
			"type":"SCALAR"
		}
	],
	"bufferViews":[
		{
			"buffer":0,
			"byteLength":768,
			"byteOffset":0,
			"target":34962
		},
		{
			"buffer":0,
			"byteLength":768,
			"byteOffset":768,
			"target":34962
		},
		{
			"buffer":0,
			"byteLength":512,
			"byteOffset":1536,
			"target":34962
		},
		{
			"buffer":0,
			"byteLength":512,
			"byteOffset":2048,
			"target":34962
		},
		{
			"buffer":0,
			"byteLength":192,
			"byteOffset":2560,
			"target":34963
		},
		{
			"buffer":0,
			"byteLength":5736,
			"byteOffset":2752,
			"target":34962
		},
		{
			"buffer":0,
			"byteLength":5736,
			"byteOffset":8488,
			"target":34962
		},
		{
			"buffer":0,
			"byteLength":3824,
			"byteOffset":14224,
			"target":34962
		},
		{
			"buffer":0,
			"byteLength":3824,
			"byteOffset":18048,
			"target":34962
		},
		{
			"buffer":0,
			"byteLength":2160,
			"byteOffset":21872,
			"target":34963
		},
		{
			"buffer":0,
			"byteLength":96,
			"byteOffset":24032,
			"target":34962
		},
		{
			"buffer":0,
			"byteLength":96,
			"byteOffset":24128,
			"target":34962
		},
		{
			"buffer":0,
			"byteLength":64,
			"byteOffset":24224,
			"target":34962
		},
		{
			"buffer":0,
			"byteLength":64,
			"byteOffset":24288,
			"target":34962
		},
		{
			"buffer":0,
			"byteLength":24,
			"byteOffset":24352,
			"target":34963
		},
		{
			"buffer":0,
			"byteLength":5736,
			"byteOffset":24376,
			"target":34962
		},
		{
			"buffer":0,
			"byteLength":5736,
			"byteOffset":30112,
			"target":34962
		},
		{
			"buffer":0,
			"byteLength":3824,
			"byteOffset":35848,
			"target":34962
		},
		{
			"buffer":0,
			"byteLength":3824,
			"byteOffset":39672,
			"target":34962
		},
		{
			"buffer":0,
			"byteLength":2160,
			"byteOffset":43496,
			"target":34963
		},
		{
			"buffer":0,
			"byteLength":96,
			"byteOffset":45656,
			"target":34962
		},
		{
			"buffer":0,
			"byteLength":96,
			"byteOffset":45752,
			"target":34962
		},
		{
			"buffer":0,
			"byteLength":64,
			"byteOffset":45848,
			"target":34962
		},
		{
			"buffer":0,
			"byteLength":64,
			"byteOffset":45912,
			"target":34962
		},
		{
			"buffer":0,
			"byteLength":27840,
			"byteOffset":45976,
			"target":34962
		},
		{
			"buffer":0,
			"byteLength":27840,
			"byteOffset":73816,
			"target":34962
		},
		{
			"buffer":0,
			"byteLength":18560,
			"byteOffset":101656,
			"target":34962
		},
		{
			"buffer":0,
			"byteLength":18560,
			"byteOffset":120216,
			"target":34962
		},
		{
			"buffer":0,
			"byteLength":10476,
			"byteOffset":138776,
			"target":34963
		},
		{
			"buffer":0,
			"byteLength":96,
			"byteOffset":149252,
			"target":34962
		},
		{
			"buffer":0,
			"byteLength":96,
			"byteOffset":149348,
			"target":34962
		},
		{
			"buffer":0,
			"byteLength":64,
			"byteOffset":149444,
			"target":34962
		},
		{
			"buffer":0,
			"byteLength":64,
			"byteOffset":149508,
			"target":34962
		},
		{
			"buffer":0,
			"byteLength":23832,
			"byteOffset":149572,
			"target":34962
		},
		{
			"buffer":0,
			"byteLength":23832,
			"byteOffset":173404,
			"target":34962
		},
		{
			"buffer":0,
			"byteLength":15888,
			"byteOffset":197236,
			"target":34962
		},
		{
			"buffer":0,
			"byteLength":15888,
			"byteOffset":213124,
			"target":34962
		},
		{
			"buffer":0,
			"byteLength":6624,
			"byteOffset":229012,
			"target":34963
		},
		{
			"buffer":0,
			"byteLength":531360,
			"byteOffset":235636,
			"target":34962
		},
		{
			"buffer":0,
			"byteLength":531360,
			"byteOffset":766996,
			"target":34962
		},
		{
			"buffer":0,
			"byteLength":354240,
			"byteOffset":1298356,
			"target":34962
		},
		{
			"buffer":0,
			"byteLength":354240,
			"byteOffset":1652596,
			"target":34962
		},
		{
			"buffer":0,
			"byteLength":127284,
			"byteOffset":2006836,
			"target":34963
		},
		{
			"buffer":0,
			"byteLength":19332,
			"byteOffset":2134120,
			"target":34962
		},
		{
			"buffer":0,
			"byteLength":19332,
			"byteOffset":2153452,
			"target":34962
		},
		{
			"buffer":0,
			"byteLength":12888,
			"byteOffset":2172784,
			"target":34962
		},
		{
			"buffer":0,
			"byteLength":12888,
			"byteOffset":2185672,
			"target":34962
		},
		{
			"buffer":0,
			"byteLength":9192,
			"byteOffset":2198560,
			"target":34963
		},
		{
			"buffer":0,
			"byteLength":28848,
			"byteOffset":2207752,
			"target":34962
		},
		{
			"buffer":0,
			"byteLength":28848,
			"byteOffset":2236600,
			"target":34962
		},
		{
			"buffer":0,
			"byteLength":19232,
			"byteOffset":2265448,
			"target":34962
		},
		{
			"buffer":0,
			"byteLength":19232,
			"byteOffset":2284680,
			"target":34962
		},
		{
			"buffer":0,
			"byteLength":10920,
			"byteOffset":2303912,
			"target":34963
		},
		{
			"buffer":0,
			"byteLength":96,
			"byteOffset":2314832,
			"target":34962
		},
		{
			"buffer":0,
			"byteLength":96,
			"byteOffset":2314928,
			"target":34962
		},
		{
			"buffer":0,
			"byteLength":64,
			"byteOffset":2315024,
			"target":34962
		},
		{
			"buffer":0,
			"byteLength":64,
			"byteOffset":2315088,
			"target":34962
		},
		{
			"buffer":0,
			"byteLength":531384,
			"byteOffset":2315152,
			"target":34962
		},
		{
			"buffer":0,
			"byteLength":531384,
			"byteOffset":2846536,
			"target":34962
		},
		{
			"buffer":0,
			"byteLength":354256,
			"byteOffset":3377920,
			"target":34962
		},
		{
			"buffer":0,
			"byteLength":354256,
			"byteOffset":3732176,
			"target":34962
		},
		{
			"buffer":0,
			"byteLength":127284,
			"byteOffset":4086432,
			"target":34963
		}
	],
	"samplers":[
		{
			"magFilter":9729,
			"minFilter":9987
		}
	],
	"buffers":[
		{
			"byteLength":4213716,
			"uri":"Window_wow_variant_01.bin"
		}
	]
}
