{
	"asset":{
		"generator":"Khronos glTF Blender I/O v4.3.47",
		"version":"2.0"
	},
	"extensionsUsed":[
		"KHR_materials_clearcoat",
		"KHR_materials_transmission",
		"KHR_materials_specular",
		"KHR_materials_ior"
	],
	"scene":0,
	"scenes":[
		{
			"name":"Scene",
			"nodes":[
				0,
				1,
				2,
				3,
				4,
				5,
				6
			]
		}
	],
	"nodes":[
		{
			"mesh":0,
			"name":"Window_frame",
			"rotation":[
				0.7071068286895752,
				0,
				0,
				0.7071068286895752
			],
			"scale":[
				0.0021623356733471155,
				0.0021623356733471155,
				0.0021623356733471155
			],
			"translation":[
				-0.11702489852905273,
				-0.0005851984024047852,
				0.0005384683609008789
			]
		},
		{
			"mesh":1,
			"name":"Window_panel_02",
			"rotation":[
				0.7071068286895752,
				0,
				0,
				0.7071068286895752
			],
			"scale":[
				0.0021623356733471155,
				0.0021623356733471155,
				0.0021623356733471155
			],
			"translation":[
				-0.08178956061601639,
				-1.0444414615631104,
				0.6223995685577393
			]
		},
		{
			"mesh":2,
			"name":"Window_panel_03",
			"rotation":[
				0.7071068286895752,
				0,
				0,
				0.7071068286895752
			],
			"scale":[
				0.0021623356733471155,
				0.0021623356733471155,
				0.0021623356733471155
			],
			"translation":[
				-0.08197176456451416,
				-1.0444412231445312,
				-0.6165517568588257
			]
		},
		{
			"mesh":3,
			"name":"Window_panel_04",
			"rotation":[
				0.7071068286895752,
				0,
				0,
				0.7071068286895752
			],
			"scale":[
				0.0021623356733471155,
				0.0021623356733471155,
				0.0021623356733471155
			],
			"translation":[
				0.054340511560440063,
				-1.008913278579712,
				-1.5737348794937134
			]
		},
		{
			"mesh":4,
			"name":"Window_rail",
			"rotation":[
				0.7071068286895752,
				0,
				0,
				0.7071068286895752
			],
			"scale":[
				0.0021623356733471155,
				0.0021623356733471155,
				0.0021623356733471155
			],
			"translation":[
				-0.016769837588071823,
				-1.1105594635009766,
				0.004814291838556528
			]
		},
		{
			"mesh":5,
			"name":"Window_panel_01",
			"rotation":[
				0.7071068286895752,
				0,
				0,
				0.7071068286895752
			],
			"scale":[
				0.0021623356733471155,
				0.0021623356733471155,
				0.0021623356733471155
			],
			"translation":[
				0.04785391315817833,
				-1.0444416999816895,
				1.587244987487793
			]
		},
		{
			"mesh":6,
			"name":"Window_handle",
			"rotation":[
				0.7071068286895752,
				0,
				0,
				0.7071068286895752
			],
			"scale":[
				0.0021623356733471155,
				0.0021623356733471155,
				0.0021623356733471155
			],
			"translation":[
				0.10944866389036179,
				0.07011590898036957,
				2.0991370677948
			]
		}
	],
	"materials":[
		{
			"doubleSided":true,
			"name":"Bricks",
			"normalTexture":{
				"index":0,
				"texCoord":1
			},
			"pbrMetallicRoughness":{
				"baseColorTexture":{
					"index":1,
					"texCoord":1
				},
				"metallicFactor":0,
				"metallicRoughnessTexture":{
					"index":2,
					"texCoord":1
				}
			}
		},
		{
			"doubleSided":true,
			"name":"Mat_3",
			"pbrMetallicRoughness":{
				"baseColorFactor":[
					0.0811493918299675,
					0.0811493918299675,
					0.0811493918299675,
					1
				],
				"metallicFactor":0.4029850661754608,
				"roughnessFactor":0.3731343150138855
			}
		},
		{
			"alphaMode":"BLEND",
			"doubleSided":true,
			"extensions":{
				"KHR_materials_clearcoat":{
					"clearcoatFactor":0.16231343150138855,
					"clearcoatRoughnessFactor":0.09716418385505676
				},
				"KHR_materials_transmission":{
					"transmissionFactor":1
				},
				"KHR_materials_ior":{
					"ior":1.4500000476837158
				}
			},
			"name":"Mat_2",
			"pbrMetallicRoughness":{
				"baseColorFactor":[
					0.800000011920929,
					0.800000011920929,
					0.800000011920929,
					0.608208954334259
				],
				"metallicFactor":0,
				"roughnessFactor":0.5
			}
		},
		{
			"doubleSided":true,
			"extensions":{
				"KHR_materials_specular":{
					"specularColorFactor":[
						2.0,
						2.0,
						2.0
					]
				},
				"KHR_materials_ior":{
					"ior":1.4500000476837158
				}
			},
			"name":"Mat_1",
			"pbrMetallicRoughness":{
				"baseColorTexture":{
					"index":3,
					"texCoord":1
				},
				"metallicFactor":0
			}
		},
		{
			"doubleSided":true,
			"extensions":{
				"KHR_materials_specular":{
					"specularColorFactor":[
						2.0,
						2.0,
						2.0
					]
				},
				"KHR_materials_ior":{
					"ior":1.4500000476837158
				}
			},
			"name":"Lock_mat",
			"pbrMetallicRoughness":{
				"baseColorFactor":[
					0.05382684990763664,
					0.05488462373614311,
					0.05810964107513428,
					1
				],
				"metallicFactor":0.8059701323509216,
				"roughnessFactor":0.38805967569351196
			}
		},
		{
			"doubleSided":true,
			"name":"handle_mat",
			"pbrMetallicRoughness":{
				"baseColorFactor":[
					0.20186765491962433,
					0.20186765491962433,
					0.20186765491962433,
					1
				],
				"metallicFactor":0.4514925479888916,
				"roughnessFactor":0.36194029450416565
			}
		}
	],
	"meshes":[
		{
			"name":"Window_frame",
			"primitives":[
				{
					"attributes":{
						"POSITION":0,
						"NORMAL":1,
						"TEXCOORD_0":2,
						"TEXCOORD_1":3
					},
					"indices":4,
					"material":0
				}
			]
		},
		{
			"name":"Window_panel_02",
			"primitives":[
				{
					"attributes":{
						"POSITION":5,
						"NORMAL":6,
						"TEXCOORD_0":7,
						"TEXCOORD_1":8
					},
					"indices":9,
					"material":1
				},
				{
					"attributes":{
						"POSITION":10,
						"NORMAL":11,
						"TEXCOORD_0":12,
						"TEXCOORD_1":13
					},
					"indices":14,
					"material":2
				}
			]
		},
		{
			"name":"Window_panel_03",
			"primitives":[
				{
					"attributes":{
						"POSITION":15,
						"NORMAL":16,
						"TEXCOORD_0":17,
						"TEXCOORD_1":18
					},
					"indices":19,
					"material":1
				},
				{
					"attributes":{
						"POSITION":20,
						"NORMAL":21,
						"TEXCOORD_0":22,
						"TEXCOORD_1":23
					},
					"indices":14,
					"material":2
				}
			]
		},
		{
			"name":"Window_panel_04",
			"primitives":[
				{
					"attributes":{
						"POSITION":24,
						"NORMAL":25,
						"TEXCOORD_0":26,
						"TEXCOORD_1":27
					},
					"indices":28,
					"material":1
				},
				{
					"attributes":{
						"POSITION":29,
						"NORMAL":30,
						"TEXCOORD_0":31,
						"TEXCOORD_1":32
					},
					"indices":33,
					"material":2
				},
				{
					"attributes":{
						"POSITION":34,
						"NORMAL":35,
						"TEXCOORD_0":36,
						"TEXCOORD_1":37
					},
					"indices":38,
					"material":3
				}
			]
		},
		{
			"name":"Window_rail",
			"primitives":[
				{
					"attributes":{
						"POSITION":39,
						"NORMAL":40,
						"TEXCOORD_0":41,
						"TEXCOORD_1":42
					},
					"indices":43,
					"material":1
				}
			]
		},
		{
			"name":"Window_panel_01",
			"primitives":[
				{
					"attributes":{
						"POSITION":44,
						"NORMAL":45,
						"TEXCOORD_0":46,
						"TEXCOORD_1":47
					},
					"indices":48,
					"material":1
				},
				{
					"attributes":{
						"POSITION":49,
						"NORMAL":50,
						"TEXCOORD_0":51,
						"TEXCOORD_1":52
					},
					"indices":53,
					"material":2
				}
			]
		},
		{
			"name":"Window_handle",
			"primitives":[
				{
					"attributes":{
						"POSITION":54,
						"NORMAL":55,
						"TEXCOORD_0":56,
						"TEXCOORD_1":57
					},
					"indices":58,
					"material":4
				},
				{
					"attributes":{
						"POSITION":59,
						"NORMAL":60,
						"TEXCOORD_0":61,
						"TEXCOORD_1":62
					},
					"indices":63,
					"material":5
				}
			]
		}
	],
	"textures":[
		{
			"sampler":0,
			"source":0
		},
		{
			"sampler":0,
			"source":1
		},
		{
			"sampler":0,
			"source":2
		},
		{
			"sampler":0,
			"source":3
		}
	],
	"images":[
		{
			"mimeType":"image/jpeg",
			"name":"Bricks059_2K_Normal",
			"uri":"Bricks059_2K_Normal.jpg"
		},
		{
			"mimeType":"image/jpeg",
			"name":"Bricks059_2K_Color",
			"uri":"Bricks059_2K_Color.jpg"
		},
		{
			"mimeType":"image/png",
			"name":"Bricks059_2K_Roughness",
			"uri":"Bricks059_2K_Roughness.png"
		},
		{
			"mimeType":"image/png",
			"name":"Untitled",
			"uri":"Untitled.png"
		}
	],
	"accessors":[
		{
			"bufferView":0,
			"componentType":5126,
			"count":64,
			"max":[
				142.47555541992188,
				1125.0205078125,
				614.373291015625
			],
			"min":[
				-57.52444076538086,
				-1118.9794921875,
				-585.626708984375
			],
			"type":"VEC3"
		},
		{
			"bufferView":1,
			"componentType":5126,
			"count":64,
			"type":"VEC3"
		},
		{
			"bufferView":2,
			"componentType":5126,
			"count":64,
			"type":"VEC2"
		},
		{
			"bufferView":3,
			"componentType":5126,
			"count":64,
			"type":"VEC2"
		},
		{
			"bufferView":4,
			"componentType":5123,
			"count":96,
			"type":"SCALAR"
		},
		{
			"bufferView":5,
			"componentType":5126,
			"count":1030,
			"max":[
				25.37729263305664,
				197.68170166015625,
				0.0001220703125
			],
			"min":[
				-25.432994842529297,
				-304.56597900390625,
				-936.5621337890625
			],
			"type":"VEC3"
		},
		{
			"bufferView":6,
			"componentType":5126,
			"count":1030,
			"type":"VEC3"
		},
		{
			"bufferView":7,
			"componentType":5126,
			"count":1030,
			"type":"VEC2"
		},
		{
			"bufferView":8,
			"componentType":5126,
			"count":1030,
			"type":"VEC2"
		},
		{
			"bufferView":9,
			"componentType":5123,
			"count":2556,
			"type":"SCALAR"
		},
		{
			"bufferView":10,
			"componentType":5126,
			"count":48,
			"max":[
				15.954586029052734,
				209.38592529296875,
				-65.7218017578125
			],
			"min":[
				-16.045412063598633,
				-207.61412048339844,
				-870.7218627929688
			],
			"type":"VEC3"
		},
		{
			"bufferView":11,
			"componentType":5126,
			"count":48,
			"type":"VEC3"
		},
		{
			"bufferView":12,
			"componentType":5126,
			"count":48,
			"type":"VEC2"
		},
		{
			"bufferView":13,
			"componentType":5126,
			"count":48,
			"type":"VEC2"
		},
		{
			"bufferView":14,
			"componentType":5123,
			"count":72,
			"type":"SCALAR"
		},
		{
			"bufferView":15,
			"componentType":5126,
			"count":478,
			"max":[
				22.146686553955078,
				278.7396545410156,
				9.1552734375e-05
			],
			"min":[
				-22.40918731689453,
				-197.68170166015625,
				-936.3358154296875
			],
			"type":"VEC3"
		},
		{
			"bufferView":16,
			"componentType":5126,
			"count":478,
			"type":"VEC3"
		},
		{
			"bufferView":17,
			"componentType":5126,
			"count":478,
			"type":"VEC2"
		},
		{
			"bufferView":18,
			"componentType":5126,
			"count":478,
			"type":"VEC2"
		},
		{
			"bufferView":19,
			"componentType":5123,
			"count":1080,
			"type":"SCALAR"
		},
		{
			"bufferView":20,
			"componentType":5126,
			"count":48,
			"max":[
				16.038846969604492,
				211.3537139892578,
				-65.72164916992188
			],
			"min":[
				-15.961151123046875,
				-205.64630126953125,
				-870.7216796875
			],
			"type":"VEC3"
		},
		{
			"bufferView":21,
			"componentType":5126,
			"count":48,
			"type":"VEC3"
		},
		{
			"bufferView":22,
			"componentType":5126,
			"count":48,
			"type":"VEC2"
		},
		{
			"bufferView":23,
			"componentType":5126,
			"count":48,
			"type":"VEC2"
		},
		{
			"bufferView":24,
			"componentType":5126,
			"count":2364,
			"max":[
				20.04485511779785,
				257.6265869140625,
				16.71759033203125
			],
			"min":[
				-165.04750061035156,
				-275.9288330078125,
				-920.734375
			],
			"type":"VEC3"
		},
		{
			"bufferView":25,
			"componentType":5126,
			"count":2364,
			"type":"VEC3"
		},
		{
			"bufferView":26,
			"componentType":5126,
			"count":2364,
			"type":"VEC2"
		},
		{
			"bufferView":27,
			"componentType":5126,
			"count":2364,
			"type":"VEC2"
		},
		{
			"bufferView":28,
			"componentType":5123,
			"count":5454,
			"type":"SCALAR"
		},
		{
			"bufferView":29,
			"componentType":5126,
			"count":48,
			"max":[
				12.999460220336914,
				209.0164794921875,
				-49.291259765625
			],
			"min":[
				-19.000534057617188,
				-207.98358154296875,
				-854.291259765625
			],
			"type":"VEC3"
		},
		{
			"bufferView":30,
			"componentType":5126,
			"count":48,
			"type":"VEC3"
		},
		{
			"bufferView":31,
			"componentType":5126,
			"count":48,
			"type":"VEC2"
		},
		{
			"bufferView":32,
			"componentType":5126,
			"count":48,
			"type":"VEC2"
		},
		{
			"bufferView":33,
			"componentType":5123,
			"count":72,
			"type":"SCALAR"
		},
		{
			"bufferView":34,
			"componentType":5126,
			"count":2862,
			"max":[
				17.999475479125977,
				254.866455078125,
				16.358795166015625
			],
			"min":[
				-84.00052642822266,
				191.5125732421875,
				-919.9412841796875
			],
			"type":"VEC3"
		},
		{
			"bufferView":35,
			"componentType":5126,
			"count":2862,
			"type":"VEC3"
		},
		{
			"bufferView":36,
			"componentType":5126,
			"count":2862,
			"type":"VEC2"
		},
		{
			"bufferView":37,
			"componentType":5126,
			"count":2862,
			"type":"VEC2"
		},
		{
			"bufferView":38,
			"componentType":5123,
			"count":3312,
			"type":"SCALAR"
		},
		{
			"bufferView":39,
			"componentType":5126,
			"count":1059,
			"max":[
				63.619232177734375,
				1022.9695434570312,
				1.29193115234375
			],
			"min":[
				-70.99687957763672,
				-1021.263671875,
				-999.16259765625
			],
			"type":"VEC3"
		},
		{
			"bufferView":40,
			"componentType":5126,
			"count":1059,
			"type":"VEC3"
		},
		{
			"bufferView":41,
			"componentType":5126,
			"count":1059,
			"type":"VEC2"
		},
		{
			"bufferView":42,
			"componentType":5126,
			"count":1059,
			"type":"VEC2"
		},
		{
			"bufferView":43,
			"componentType":5123,
			"count":3120,
			"type":"SCALAR"
		},
		{
			"bufferView":44,
			"componentType":5126,
			"count":2384,
			"max":[
				22.609416961669922,
				275.78350830078125,
				0
			],
			"min":[
				-166.9354705810547,
				-253.9981689453125,
				-938.1931762695312
			],
			"type":"VEC3"
		},
		{
			"bufferView":45,
			"componentType":5126,
			"count":2384,
			"type":"VEC3"
		},
		{
			"bufferView":46,
			"componentType":5126,
			"count":2384,
			"type":"VEC2"
		},
		{
			"bufferView":47,
			"componentType":5126,
			"count":2384,
			"type":"VEC2"
		},
		{
			"bufferView":48,
			"componentType":5123,
			"count":5460,
			"type":"SCALAR"
		},
		{
			"bufferView":49,
			"componentType":5126,
			"count":48,
			"max":[
				15.99929428100586,
				208.28021240234375,
				-65.721923828125
			],
			"min":[
				-16.000701904296875,
				-208.71978759765625,
				-870.721923828125
			],
			"type":"VEC3"
		},
		{
			"bufferView":50,
			"componentType":5126,
			"count":48,
			"type":"VEC3"
		},
		{
			"bufferView":51,
			"componentType":5126,
			"count":48,
			"type":"VEC2"
		},
		{
			"bufferView":52,
			"componentType":5126,
			"count":48,
			"type":"VEC2"
		},
		{
			"bufferView":53,
			"componentType":5123,
			"count":72,
			"type":"SCALAR"
		},
		{
			"bufferView":54,
			"componentType":5126,
			"count":54526,
			"max":[
				1.1444091796875e-05,
				16.00006103515625,
				73.14707946777344
			],
			"min":[
				-12.499988555908203,
				-15.99993896484375,
				-66.8529052734375
			],
			"type":"VEC3"
		},
		{
			"bufferView":55,
			"componentType":5126,
			"count":54526,
			"type":"VEC3"
		},
		{
			"bufferView":56,
			"componentType":5126,
			"count":54526,
			"type":"VEC2"
		},
		{
			"bufferView":57,
			"componentType":5126,
			"count":54526,
			"type":"VEC2"
		},
		{
			"bufferView":58,
			"componentType":5123,
			"count":63648,
			"type":"SCALAR"
		},
		{
			"bufferView":59,
			"componentType":5126,
			"count":72468,
			"max":[
				45.14857864379883,
				12.02874755859375,
				32.5780029296875
			],
			"min":[
				-9.50008773803711,
				-66.769287109375,
				-46.35247802734375
			],
			"type":"VEC3"
		},
		{
			"bufferView":60,
			"componentType":5126,
			"count":72468,
			"type":"VEC3"
		},
		{
			"bufferView":61,
			"componentType":5126,
			"count":72468,
			"type":"VEC2"
		},
		{
			"bufferView":62,
			"componentType":5126,
			"count":72468,
			"type":"VEC2"
		},
		{
			"bufferView":63,
			"componentType":5125,
			"count":82884,
			"type":"SCALAR"
		}
	],
	"bufferViews":[
		{
			"buffer":0,
			"byteLength":768,
			"byteOffset":0,
			"target":34962
		},
		{
			"buffer":0,
			"byteLength":768,
			"byteOffset":768,
			"target":34962
		},
		{
			"buffer":0,
			"byteLength":512,
			"byteOffset":1536,
			"target":34962
		},
		{
			"buffer":0,
			"byteLength":512,
			"byteOffset":2048,
			"target":34962
		},
		{
			"buffer":0,
			"byteLength":192,
			"byteOffset":2560,
			"target":34963
		},
		{
			"buffer":0,
			"byteLength":12360,
			"byteOffset":2752,
			"target":34962
		},
		{
			"buffer":0,
			"byteLength":12360,
			"byteOffset":15112,
			"target":34962
		},
		{
			"buffer":0,
			"byteLength":8240,
			"byteOffset":27472,
			"target":34962
		},
		{
			"buffer":0,
			"byteLength":8240,
			"byteOffset":35712,
			"target":34962
		},
		{
			"buffer":0,
			"byteLength":5112,
			"byteOffset":43952,
			"target":34963
		},
		{
			"buffer":0,
			"byteLength":576,
			"byteOffset":49064,
			"target":34962
		},
		{
			"buffer":0,
			"byteLength":576,
			"byteOffset":49640,
			"target":34962
		},
		{
			"buffer":0,
			"byteLength":384,
			"byteOffset":50216,
			"target":34962
		},
		{
			"buffer":0,
			"byteLength":384,
			"byteOffset":50600,
			"target":34962
		},
		{
			"buffer":0,
			"byteLength":144,
			"byteOffset":50984,
			"target":34963
		},
		{
			"buffer":0,
			"byteLength":5736,
			"byteOffset":51128,
			"target":34962
		},
		{
			"buffer":0,
			"byteLength":5736,
			"byteOffset":56864,
			"target":34962
		},
		{
			"buffer":0,
			"byteLength":3824,
			"byteOffset":62600,
			"target":34962
		},
		{
			"buffer":0,
			"byteLength":3824,
			"byteOffset":66424,
			"target":34962
		},
		{
			"buffer":0,
			"byteLength":2160,
			"byteOffset":70248,
			"target":34963
		},
		{
			"buffer":0,
			"byteLength":576,
			"byteOffset":72408,
			"target":34962
		},
		{
			"buffer":0,
			"byteLength":576,
			"byteOffset":72984,
			"target":34962
		},
		{
			"buffer":0,
			"byteLength":384,
			"byteOffset":73560,
			"target":34962
		},
		{
			"buffer":0,
			"byteLength":384,
			"byteOffset":73944,
			"target":34962
		},
		{
			"buffer":0,
			"byteLength":28368,
			"byteOffset":74328,
			"target":34962
		},
		{
			"buffer":0,
			"byteLength":28368,
			"byteOffset":102696,
			"target":34962
		},
		{
			"buffer":0,
			"byteLength":18912,
			"byteOffset":131064,
			"target":34962
		},
		{
			"buffer":0,
			"byteLength":18912,
			"byteOffset":149976,
			"target":34962
		},
		{
			"buffer":0,
			"byteLength":10908,
			"byteOffset":168888,
			"target":34963
		},
		{
			"buffer":0,
			"byteLength":576,
			"byteOffset":179796,
			"target":34962
		},
		{
			"buffer":0,
			"byteLength":576,
			"byteOffset":180372,
			"target":34962
		},
		{
			"buffer":0,
			"byteLength":384,
			"byteOffset":180948,
			"target":34962
		},
		{
			"buffer":0,
			"byteLength":384,
			"byteOffset":181332,
			"target":34962
		},
		{
			"buffer":0,
			"byteLength":144,
			"byteOffset":181716,
			"target":34963
		},
		{
			"buffer":0,
			"byteLength":34344,
			"byteOffset":181860,
			"target":34962
		},
		{
			"buffer":0,
			"byteLength":34344,
			"byteOffset":216204,
			"target":34962
		},
		{
			"buffer":0,
			"byteLength":22896,
			"byteOffset":250548,
			"target":34962
		},
		{
			"buffer":0,
			"byteLength":22896,
			"byteOffset":273444,
			"target":34962
		},
		{
			"buffer":0,
			"byteLength":6624,
			"byteOffset":296340,
			"target":34963
		},
		{
			"buffer":0,
			"byteLength":12708,
			"byteOffset":302964,
			"target":34962
		},
		{
			"buffer":0,
			"byteLength":12708,
			"byteOffset":315672,
			"target":34962
		},
		{
			"buffer":0,
			"byteLength":8472,
			"byteOffset":328380,
			"target":34962
		},
		{
			"buffer":0,
			"byteLength":8472,
			"byteOffset":336852,
			"target":34962
		},
		{
			"buffer":0,
			"byteLength":6240,
			"byteOffset":345324,
			"target":34963
		},
		{
			"buffer":0,
			"byteLength":28608,
			"byteOffset":351564,
			"target":34962
		},
		{
			"buffer":0,
			"byteLength":28608,
			"byteOffset":380172,
			"target":34962
		},
		{
			"buffer":0,
			"byteLength":19072,
			"byteOffset":408780,
			"target":34962
		},
		{
			"buffer":0,
			"byteLength":19072,
			"byteOffset":427852,
			"target":34962
		},
		{
			"buffer":0,
			"byteLength":10920,
			"byteOffset":446924,
			"target":34963
		},
		{
			"buffer":0,
			"byteLength":576,
			"byteOffset":457844,
			"target":34962
		},
		{
			"buffer":0,
			"byteLength":576,
			"byteOffset":458420,
			"target":34962
		},
		{
			"buffer":0,
			"byteLength":384,
			"byteOffset":458996,
			"target":34962
		},
		{
			"buffer":0,
			"byteLength":384,
			"byteOffset":459380,
			"target":34962
		},
		{
			"buffer":0,
			"byteLength":144,
			"byteOffset":459764,
			"target":34963
		},
		{
			"buffer":0,
			"byteLength":654312,
			"byteOffset":459908,
			"target":34962
		},
		{
			"buffer":0,
			"byteLength":654312,
			"byteOffset":1114220,
			"target":34962
		},
		{
			"buffer":0,
			"byteLength":436208,
			"byteOffset":1768532,
			"target":34962
		},
		{
			"buffer":0,
			"byteLength":436208,
			"byteOffset":2204740,
			"target":34962
		},
		{
			"buffer":0,
			"byteLength":127296,
			"byteOffset":2640948,
			"target":34963
		},
		{
			"buffer":0,
			"byteLength":869616,
			"byteOffset":2768244,
			"target":34962
		},
		{
			"buffer":0,
			"byteLength":869616,
			"byteOffset":3637860,
			"target":34962
		},
		{
			"buffer":0,
			"byteLength":579744,
			"byteOffset":4507476,
			"target":34962
		},
		{
			"buffer":0,
			"byteLength":579744,
			"byteOffset":5087220,
			"target":34962
		},
		{
			"buffer":0,
			"byteLength":331536,
			"byteOffset":5666964,
			"target":34963
		}
	],
	"samplers":[
		{
			"magFilter":9729,
			"minFilter":9987
		}
	],
	"buffers":[
		{
			"byteLength":5998500,
			"uri":"Window_panels_export_v2.bin"
		}
	]
}
